<?xml version="1.0" encoding="UTF-8" standalone="no"?>
<!-- Created with Inkscape (http://www.inkscape.org/) -->

<svg
   width="34"
   height="61"
   viewBox="0 0 8.9958331 16.139583"
   version="1.1"
   id="svg1"
   xml:space="preserve"
   inkscape:version="1.3 (0e150ed6c4, 2023-07-21)"
   sodipodi:docname="material.svg"
   xmlns:inkscape="http://www.inkscape.org/namespaces/inkscape"
   xmlns:sodipodi="http://sodipodi.sourceforge.net/DTD/sodipodi-0.dtd"
   xmlns="http://www.w3.org/2000/svg"
   xmlns:svg="http://www.w3.org/2000/svg"><sodipodi:namedview
     id="namedview1"
     pagecolor="#505050"
     bordercolor="#eeeeee"
     borderopacity="1"
     inkscape:showpageshadow="0"
     inkscape:pageopacity="0"
     inkscape:pagecheckerboard="0"
     inkscape:deskcolor="#505050"
     inkscape:document-units="px"
     inkscape:zoom="5.4805275"
     inkscape:cx="83.021206"
     inkscape:cy="54.283096"
     inkscape:window-width="3200"
     inkscape:window-height="1271"
     inkscape:window-x="2391"
     inkscape:window-y="-8"
     inkscape:window-maximized="1"
     inkscape:current-layer="layer1" /><defs
     id="defs1" /><g
     inkscape:label="Camada 1"
     inkscape:groupmode="layer"
     id="layer1"><path
       style="fill:#000000;fill-opacity:1;stroke-width:0.0703906"
       d="M 7.361826,11.743904 C 7.1165353,11.657334 6.8097544,11.338194 6.7159071,11.071972 6.643059,10.865319 6.6406452,10.506681 6.7106292,10.287712 6.7345056,10.212999 6.6900561,10.166207 6.3795763,9.9391806 6.1823279,9.7949506 6.0209428,9.6690434 6.0209428,9.6593879 c 0,-0.00966 0.070399,-0.084524 0.1564424,-0.1663757 L 6.3338274,9.3441926 6.6738988,9.5956535 C 6.9772753,9.8199813 7.0209859,9.8409742 7.078996,9.7902106 7.2885867,9.6067985 7.677019,9.5162264 8.0012689,9.5751608 8.6459289,9.6923315 9.0424508,10.315166 8.8788766,10.953659 8.7446868,11.477453 8.3173188,11.814407 7.7942263,11.80884 7.6533487,11.807364 7.458769,11.778122 7.361828,11.743908 Z m 0.566436,-0.695828 c 0.2899679,-0.121157 0.3482423,-0.416405 0.126044,-0.638604 -0.1562438,-0.156244 -0.2950758,-0.172419 -0.4851525,-0.05653 -0.1325954,0.08085 -0.207997,0.261534 -0.1769386,0.424004 0.021375,0.111815 0.1854551,0.276991 0.296672,0.298656 0.047099,0.0091 0.090637,0.01909 0.096751,0.02204 0.00612,0.003 0.070296,-0.01936 0.1426239,-0.04958 z m -4.5396608,0.677566 c -0.034014,-0.03401 -0.047288,-0.299488 -0.047288,-0.945751 V 9.8814274 h 0.2155907 0.2155907 l 0.010995,0.5173146 0.010995,0.517314 0.4152117,-0.507463 0.4152113,-0.5074627 0.2842501,-0.01158 c 0.1563382,-0.00637 0.2842504,-0.00175 0.2842504,0.010288 0,0.028743 -1.46005,1.8053297 -1.514568,1.8429277 -0.065656,0.04528 -0.2380038,0.03511 -0.2902397,-0.01713 z M 3.2496391,9.4094954 C 3.1340551,9.2721318 3.135655,9.2789407 3.0071126,8.3772459 2.8863351,7.5300151 2.8845303,7.4534873 2.984067,7.4002171 c 0.098485,-0.052707 4.7313457,-0.056951 4.7313457,-0.00434 0,0.069572 -1.8535138,1.9595467 -2.0055377,2.0449887 -0.1469339,0.082582 -0.1954827,0.085899 -1.2571955,0.085899 H 3.3483206 Z M 2.4402955,8.3233358 c -0.1053989,-0.04576 -0.3494332,-0.057567 -1.189806,-0.057567 -1.04782065,0 -1.05775561,-7.751e-4 -1.11855479,-0.08758 -0.0810705,-0.115749 -0.0773796,-0.172228 0.0174672,-0.2670765 0.0751281,-0.075125 0.1313543,-0.078812 1.20189219,-0.078812 1.0705375,0 1.1267664,0.00369 1.2018917,0.078812 0.043347,0.043348 0.079054,0.1275779 0.079351,0.1871803 2.94e-4,0.059602 0.01123,0.1482666 0.024299,0.1970316 0.028185,0.1051747 -0.023434,0.111852 -0.2165413,0.028012 z M 3.3478809,6.9736434 c 0.00722,-0.017119 0.0747,-0.1855795 0.1499444,-0.3743591 L 3.634635,6.2560481 H 3.8202561 4.0058774 L 4.215432,5.8621948 4.4249861,5.4683418 4.6883114,5.4681307 4.9516359,5.4679195 5.0816183,5.7043576 5.2116007,5.9407951 h 0.4350167 0.4350169 l 0.1962398,0.3134715 0.1962394,0.3134708 0.2681817,0.011631 0.2681814,0.011631 0.1192825,0.2068834 0.1192824,0.2068827 H 5.2918939 c -1.0764316,0 -1.951237,-0.014005 -1.944013,-0.031122 z"
       id="path1" /></g></svg>
